<svg width="234" height="234" viewBox="0 0 234 234" fill="none" xmlns="http://www.w3.org/2000/svg"><path d="m224.62 121.055-5.121-.396c-1.355-.105-2.288.12-2.796.675-.493.571-.797 1.599-.911 3.083-.09 1.164-.052 2.547.114 4.149l8.088.625-.173 2.249-16.894-1.306.173-2.249 6.844.529c-.165-1.618-.197-3.072-.098-4.364.171-2.218.658-3.753 1.462-4.605.804-.853 1.892-1.226 3.264-1.12l6.222.481-.174 2.249ZM217.675 133.952l-1.97 9.199-1.549-.333.789-3.684-9.504-2.04.392-1.83 9.504 2.04.79-3.685 1.548.333ZM209.728 143.684c.408.142.81.325 1.207.549.411.229.849.551 1.314.968.474.437.857.919 1.148 1.444.291.526.464 1.171.519 1.936.049.78-.079 1.608-.385 2.484-.522 1.495-1.423 2.545-2.701 3.148-1.269.624-2.817.617-4.645-.023-1.843-.644-3.096-1.642-3.759-2.993-.654-1.33-.718-2.751-.19-4.261.538-1.541 1.477-2.628 2.817-3.261 1.335-.617 2.893-.615 4.675.009Zm-.771 1.916a10.656 10.656 0 0 0-.945-.279 6.834 6.834 0 0 0-1.16-.101 3.952 3.952 0 0 0-1.254.171c-.366.127-.726.357-1.08.69-.36.349-.634.796-.824 1.339-.375 1.073-.267 2.026.323 2.859.585.849 1.58 1.519 2.985 2.01 1.087.381 2.111.459 3.07.236.96-.224 1.632-.887 2.017-1.99.222-.634.278-1.233.17-1.796-.108-.564-.289-1.017-.542-1.36-.259-.327-.608-.636-1.049-.926-.426-.285-.758-.477-.994-.576-.221-.095-.46-.187-.717-.277ZM204.103 163.455l1.142-1.696c.707.665 1.145 1.555 1.317 2.669.177 1.136-.098 2.335-.824 3.597-.846 1.469-1.949 2.376-3.309 2.718-1.368.357-2.919.036-4.652-.963a7.705 7.705 0 0 1-1.197-.855 6.48 6.48 0 0 1-1.098-1.27 5.588 5.588 0 0 1-.798-1.595c-.161-.554-.195-1.202-.102-1.942.1-.718.365-1.451.796-2.2.67-1.165 1.515-2.007 2.535-2.528 1.033-.512 2.218-.55 3.554-.113l-.767 1.719c-.704-.221-1.363-.231-1.977-.031-.608.222-1.049.476-1.324.76-.26.293-.483.599-.666.918-.519.901-.633 1.805-.342 2.711.283.92.888 1.666 1.815 2.236l2.657-4.617 1.373.791-2.657 4.617c2.217 1.056 3.848.676 4.893-1.141a3.482 3.482 0 0 0 .474-2.026 2.447 2.447 0 0 0-.843-1.759ZM201.977 173.595l-5.558 7.589-1.278-.936 2.226-3.04-7.839-5.748 1.106-1.51 7.84 5.748 2.226-3.039 1.277.936ZM190.651 179.337c.313.298.605.63.874.997.282.377.548.852.801 1.422.252.594.404 1.19.453 1.789.049.598-.058 1.258-.323 1.978-.275.731-.732 1.433-1.371 2.106-1.091 1.148-2.343 1.735-3.757 1.759-1.413.048-2.821-.596-4.225-1.93-1.415-1.345-2.147-2.769-2.197-4.273-.05-1.482.476-2.803 1.578-3.963 1.124-1.183 2.427-1.788 3.908-1.814 1.471-.015 2.89.628 4.259 1.929Zm-1.491 1.43c-.232-.22-.481-.435-.746-.643a6.845 6.845 0 0 0-1.016-.568 3.905 3.905 0 0 0-1.214-.36c-.386-.035-.809.026-1.269.185-.471.17-.904.465-1.301.882-.782.824-1.075 1.737-.88 2.739.185 1.014.816 2.034 1.895 3.059.835.794 1.736 1.286 2.702 1.477.967.19 1.853-.138 2.657-.985.463-.487.76-1.01.893-1.568s.154-1.045.064-1.462c-.101-.404-.293-.83-.576-1.275-.271-.435-.494-.746-.669-.934a11.95 11.95 0 0 0-.54-.547ZM171.377 197.017c-1.579.765-2.851.479-3.815-.857-.637-.882-.796-1.814-.478-2.794.315-.958 1.101-1.891 2.359-2.799 1.194-.862 2.317-1.328 3.371-1.399 1.054-.07 2.085.429 3.093 1.497l-1.349 1.33a6.78 6.78 0 0 0-.823-.649 4.11 4.11 0 0 0-.853-.361c-.35-.103-.731-.084-1.143.056-.425.149-.897.411-1.416.785-1.517 1.096-1.906 2.157-1.166 3.182.393.545.852.825 1.377.841.511.025 1.162-.248 1.954-.819l1.167-.843.927 1.284-.973.703c-1.374.993-1.701 1.989-.98 2.988.272.376.674.579 1.208.608.521.038 1.106-.177 1.754-.645a3.691 3.691 0 0 0 1.242-1.519c.27-.61.23-1.281-.122-2.014l1.658-.901c.546.947.64 1.925.283 2.934-.371 1.017-1.133 1.943-2.287 2.777a7.273 7.273 0 0 1-1.677.915c-.565.23-1.188.295-1.871.196-.674-.086-1.226-.427-1.657-1.024-.384-.532-.571-1.078-.561-1.638.007-.537.266-1.149.778-1.834ZM168.908 204.947l-1.652.88-2.155-4.046-5.125 2.73 2.155 4.047-1.652.88-5.314-9.978 1.652-.881 2.414 4.534 5.125-2.731-2.414-4.533 1.652-.88 5.314 9.978ZM148.385 209.33l.131.361c.103.286.195.516.276.691.08.175.22.397.419.665.185.274.385.474.601.6.221.141.514.221.879.242.37.036.781-.028 1.232-.191.737-.267 1.243-.655 1.519-1.163.26-.503.27-1.086.03-1.748l-.057-.158 1.913-.566c.06.166.113.359.16.581.036.242.037.573.003.994a3.799 3.799 0 0 1-.303 1.208c-.167.384-.475.777-.926 1.178-.459.422-1.042.761-1.749 1.018-1.068.387-2.032.498-2.892.333-.833-.14-1.441-.456-1.823-.947-.392-.471-.785-1.248-1.177-2.331l-1.358-3.746a7.059 7.059 0 0 0-.252-.623.975.975 0 0 0-.373-.325c-.184-.086-.397-.085-.637.002-.091.033-.26.128-.509.286l-.548-1.511c.357-.283.716-.49 1.077-.621.496-.18.905-.226 1.226-.138.25.08.492.23.725.452.234.222.391.42.471.595.648-1.545 1.649-2.564 3.003-3.054 1.068-.388 2.041-.426 2.919-.114.869.331 1.468.948 1.795 1.851.343.948.238 1.854-.316 2.719-.648.983-1.94 1.903-3.876 2.758l-1.583.702Zm-.448-1.165c2.055-1.137 3.233-1.854 3.534-2.15.747-.662.987-1.362.72-2.099-.158-.436-.46-.752-.906-.948-.455-.176-1.013-.143-1.675.096a4.058 4.058 0 0 0-1.707 1.207c-.284.341-.458.778-.52 1.312-.062.533.022 1.115.251 1.747l.303.835ZM142.892 215.794l-1.83.392-.711-3.308c-.154-.72-.453-1.196-.896-1.428-.454-.213-1.089-.233-1.902-.058a7.405 7.405 0 0 0-2.373.951l1.048 4.881-1.83.393-2.374-11.052 1.831-.393.992 4.622c1.135-.505 2.133-.85 2.993-1.035 1.127-.242 2.066-.173 2.818.205.737.382 1.209 1.058 1.418 2.028l.816 3.802ZM128.638 218.464l-1.868.123-.5-7.592-5.613 6.791.078 1.197-1.867.123-.744-11.28 1.868-.122.513 7.783 5.613-6.791-.091-1.389 1.868-.123.743 11.28ZM114.805 219.08l-9.388-.616.103-1.581 3.76.247.634-9.699 1.868.123-.634 9.699 3.76.247-.103 1.58ZM87.155 214.672l2.396-9.42-1.814-.462 1.1-4.326 1.629.415-.71 2.791 9.35 2.383.71-2.791 1.627.415-1.1 4.325c-2.041-.024-3.67 2.293-4.89 6.952l-.437 1.721-7.861-2.003Zm2.204-1.073 4.373 1.114.225-.884a19.162 19.162 0 0 1 1.489-3.905c.645-1.304 1.386-2.172 2.222-2.603l-6.303-1.606-2.006 7.884Z" fill="#1A1A1A"/><path d="m74.224 209.736 4.243-10.476 1.735.703-3.649 9.008 4.182 1.696.387-.956c.517-1.275.903-2.207 1.158-2.794a20.22 20.22 0 0 1 1.056-2.031c.455-.783.88-1.301 1.276-1.554.382-.26.86-.438 1.433-.533.568-.08 1.2.021 1.897.303l.267.109-.594 1.468-.267-.109c-.555-.207-1.024-.199-1.409.025-.405.233-.853.785-1.344 1.656-.49.871-1.114 2.241-1.871 4.109l-.982 2.425-7.518-3.049ZM63.177 203.739l5.565-9.838 1.63.922-2.234 3.948 2.068 1.171c.627.355 1.215.468 1.767.338.529-.123.95-.363 1.261-.719.299-.364.641-.759 1.028-1.183.373-.432.706-.695.997-.787l1.921 1.088c-.418.057-.83.265-1.235.624a8.26 8.26 0 0 0-1.058 1.139c-.292.386-.698.698-1.22.936-.528.253-1.122.311-1.781.177.537.415.847.94.93 1.574a2.774 2.774 0 0 1-.338 1.767c-1.174 2.075-2.916 2.458-5.228 1.149l-4.073-2.306Zm2.41-.456 2.63 1.49c.586.331 1.109.398 1.57.199.44-.192.762-.469.967-.831.252-.446.34-.893.262-1.341-.099-.442-.455-.837-1.068-1.184l-2.59-1.466-1.772 3.133ZM46.851 191.075l-1.828-1.628 7.511-8.445 1.255 1.117-6.172 6.939 8.718-4.673 1.47 1.309-3.86 9.253 6.298-7.083 1.399 1.245-7.511 8.446-2.116-1.883 3.654-9.31-8.818 4.713ZM45.288 180.854l.11-.093a4.743 4.743 0 0 0 1.592-2.513c.25-1-.02-1.974-.808-2.92-.563-.677-1.196-1.024-1.899-1.043a4.19 4.19 0 0 0-2.034.446l-1.041-1.663c2.497-.977 4.564-.482 6.203 1.485.993 1.193 1.452 2.519 1.376 3.978-.088 1.469-.93 2.869-2.528 4.201-.787.655-1.589 1.105-2.406 1.348-.84.242-1.6.292-2.28.151a6.314 6.314 0 0 1-1.895-.701 5.518 5.518 0 0 1-1.456-1.224c-.902-1.082-1.293-2.339-1.174-3.771.106-1.422.94-2.784 2.5-4.085l.24-.199 5.5 6.603Zm-1.1.854-4.132-4.962c-.738.615-1.17 1.371-1.297 2.268-.139.908.093 1.725.698 2.45.614.738 1.354 1.101 2.218 1.089.852-.002 1.69-.284 2.513-.845ZM32.8 174.713l-.987-1.591 3.894-2.419-3.065-4.934-3.893 2.418-.987-1.59 9.6-5.965.988 1.591-4.362 2.71 3.064 4.935 4.362-2.71.988 1.59-9.601 5.965ZM22.055 154.449l10.342-4.56.755 1.714-4.15 1.829.959 2.175c.29.659.695 1.101 1.214 1.327.498.217.979.277 1.442.177.457-.114.967-.225 1.531-.334.557-.123.98-.135 1.27-.035l.89 2.021c-.37-.205-.824-.284-1.364-.238a8.166 8.166 0 0 0-1.528.28c-.465.135-.978.142-1.538.022-.574-.114-1.086-.422-1.535-.923.184.653.119 1.259-.195 1.817a2.775 2.775 0 0 1-1.327 1.215c-2.18.961-3.807.227-4.878-2.204l-1.888-4.283Zm2.204 1.074 1.22 2.768c.271.615.65.981 1.14 1.098.467.108.891.079 1.272-.089.468-.207.805-.513 1.011-.918.185-.414.135-.943-.149-1.587l-1.2-2.724-3.294 1.452ZM27.065 145.302l-5.412 1.667-.22-.711c-.325-1.055-.818-1.841-1.479-2.357-.661-.516-1.458-.631-2.39-.343-.918.282-1.54.842-1.869 1.68-.328.838-.345 1.731-.053 2.679.344 1.116.94 1.803 1.79 2.06.834.262 1.702.255 2.604-.023l.367-.113.614 1.995-.412.127c-1.407.434-2.75.337-4.032-.29-1.297-.621-2.188-1.72-2.673-3.295-.443-1.437-.358-2.82.255-4.147.597-1.322 1.621-2.207 3.074-2.655 1.315-.405 2.497-.317 3.547.264 1.034.585 1.782 1.493 2.245 2.724l3.486-1.074.558 1.812Zm2.854-2.964.629 2.042-2.225.685-.629-2.042 2.225-.685ZM9.368 113.376l5.122.376c1.356.1 2.287-.128 2.793-.685.491-.573.791-1.602.9-3.086.085-1.165.042-2.548-.13-4.149l-8.09-.594.164-2.25 16.9 1.241-.165 2.25-6.846-.503c.17 1.617.208 3.072.114 4.364-.162 2.219-.644 3.755-1.444 4.611-.8.856-1.887 1.233-3.26 1.132l-6.223-.457.165-2.25ZM16.245 100.518l1.936-9.206 1.55.327-.775 3.687 9.511 2.004-.385 1.832-9.512-2.004-.775 3.687-1.55-.327ZM24.107 90.856a7.506 7.506 0 0 1-1.209-.544 7.393 7.393 0 0 1-1.318-.964 5.746 5.746 0 0 1-1.153-1.44c-.293-.524-.469-1.168-.527-1.933-.052-.78.073-1.608.376-2.486.517-1.497 1.413-2.55 2.69-3.158 1.266-.629 2.814-.627 4.644.005 1.845.638 3.102 1.631 3.77 2.98.66 1.328.728 2.748.206 4.26-.532 1.543-1.467 2.633-2.804 3.271-1.332.623-2.89.626-4.675.01Zm.764-1.92c.302.105.617.197.945.277.319.059.705.091 1.16.096a3.94 3.94 0 0 0 1.255-.176c.365-.127.724-.359 1.077-.694.358-.35.63-.798.819-1.342.37-1.074.259-2.026-.334-2.858-.589-.846-1.586-1.513-2.992-1.999-1.09-.376-2.113-.45-3.072-.223-.958.227-1.628.893-2.01 1.997-.218.635-.273 1.234-.162 1.797.11.563.293 1.015.547 1.357.26.327.61.634 1.053.922.427.284.759.474.995.573.222.094.461.185.719.274ZM29.58 71.12l-1.135 1.7c-.71-.663-1.151-1.551-1.327-2.665-.181-1.135.09-2.335.81-3.6.84-1.472 1.94-2.383 3.3-2.73 1.367-.362 2.919-.047 4.655.945a7.7 7.7 0 0 1 1.2.852c.384.33.75.75 1.102 1.265.36.5.628 1.03.805 1.593.163.553.2 1.2.108 1.94-.096.72-.359 1.454-.787 2.204-.666 1.167-1.508 2.013-2.525 2.537-1.032.516-2.216.558-3.554.126l.76-1.721c.706.218 1.364.226 1.977.023.607-.224 1.048-.48 1.321-.765.26-.294.481-.6.663-.92.516-.903.626-1.808.332-2.713-.286-.919-.894-1.662-1.823-2.23l-2.64 4.628-1.376-.786 2.64-4.627c-2.22-1.047-3.85-.661-4.889 1.16a3.478 3.478 0 0 0-.466 2.027c.04.704.323 1.29.85 1.756ZM31.618 60.982l5.53-7.609 1.282.932-2.215 3.048 7.86 5.72-1.1 1.513-7.861-5.72-2.215 3.048-1.281-.932ZM42.744 55.358a7.512 7.512 0 0 1-.881-.99 7.393 7.393 0 0 1-.81-1.417 5.748 5.748 0 0 1-.467-1.785c-.054-.598.049-1.258.308-1.98.27-.734.722-1.44 1.356-2.117 1.083-1.156 2.33-1.751 3.744-1.786 1.413-.058 2.826.575 4.239 1.899 1.425 1.335 2.168 2.754 2.229 4.258.06 1.48-.457 2.806-1.55 3.974-1.115 1.19-2.413 1.805-3.895 1.842-1.47.026-2.895-.607-4.273-1.898Zm1.48-1.441c.234.219.485.431.752.638.266.184.606.37 1.02.56.414.191.82.308 1.217.352.386.032.808-.032 1.267-.195.47-.174.9-.47 1.294-.891.776-.83 1.063-1.745.86-2.746-.191-1.012-.83-2.027-1.916-3.045-.841-.788-1.746-1.273-2.714-1.457-.968-.183-1.85.152-2.649 1.004-.459.49-.753 1.016-.882 1.575-.128.558-.146 1.046-.053 1.462.104.404.299.828.585 1.271.274.433.5.743.676.93.164.175.345.356.544.542ZM61.908 37.481c1.576-.77 2.848-.49 3.818.843.64.88.802 1.81.487 2.792-.31.96-1.094 1.895-2.349 2.808-1.19.867-2.311 1.337-3.365 1.411-1.054.074-2.087-.42-3.099-1.486l1.344-1.334c.332.293.607.508.826.646.21.125.494.244.854.358.35.101.732.081 1.143-.06.425-.15.896-.415 1.413-.791 1.514-1.102 1.898-2.163 1.155-3.186-.396-.543-.856-.822-1.38-.836-.512-.023-1.162.252-1.951.826l-1.164.847-.932-1.28.97-.707c1.371-.998 1.694-1.995.97-2.991-.274-.376-.677-.577-1.21-.604-.522-.036-1.106.181-1.753.652a3.694 3.694 0 0 0-1.236 1.523c-.268.61-.225 1.282.13 2.014l-1.655.907c-.55-.946-.648-1.923-.294-2.933.367-1.019 1.126-1.947 2.277-2.785a7.238 7.238 0 0 1 1.674-.922c.563-.232 1.187-.3 1.87-.203.674.084 1.227.423 1.66 1.018.386.53.575 1.076.567 1.636-.004.538-.261 1.15-.77 1.837ZM64.418 29.425l1.649-.887 2.17 4.039 5.115-2.75-2.17-4.038 1.649-.886 5.35 9.958-1.648.887-2.431-4.525-5.115 2.75 2.43 4.524-1.648.886-5.35-9.958ZM85.017 24.87l-.132-.36a9.324 9.324 0 0 0-.279-.69 3.996 3.996 0 0 0-.422-.663c-.185-.273-.386-.472-.602-.597-.222-.14-.515-.22-.88-.24-.371-.034-.782.031-1.232.196-.736.27-1.24.66-1.514 1.17-.258.503-.266 1.086-.024 1.747l.058.157-1.911.574a4.276 4.276 0 0 1-.162-.58c-.037-.242-.04-.574-.007-.995a3.78 3.78 0 0 1 .298-1.208c.166-.385.473-.779.921-1.182.459-.424 1.04-.765 1.746-1.024 1.067-.391 2.03-.506 2.89-.345.835.138 1.444.451 1.828.94.394.47.789 1.245 1.185 2.327l1.372 3.74c.1.271.184.479.254.623a.98.98 0 0 0 .374.323c.185.086.398.085.638-.004.09-.033.26-.129.508-.288l.554 1.51a3.877 3.877 0 0 1-1.075.624c-.496.182-.904.23-1.226.143a1.9 1.9 0 0 1-.727-.45c-.234-.22-.392-.418-.473-.593-.642 1.548-1.64 2.57-2.99 3.066-1.067.392-2.04.433-2.92.125-.87-.328-1.47-.943-1.801-1.844-.348-.947-.246-1.854.305-2.72.644-.986 1.933-1.91 3.866-2.773l1.58-.708Zm.453 1.164c-2.051 1.145-3.227 1.866-3.527 2.163-.744.666-.981 1.366-.711 2.102.16.436.462.75.909.945.455.174 1.013.14 1.674-.103.3-.11.587-.258.86-.443a4.09 4.09 0 0 0 .843-.77c.283-.342.455-.78.515-1.313.06-.534-.026-1.116-.258-1.747l-.305-.834ZM90.51 18.343l1.828-.4.724 3.307c.157.719.457 1.193.9 1.424.457.212 1.09.229 1.904.05a7.38 7.38 0 0 0 2.369-.96l-1.067-4.877 1.829-.4 2.416 11.044-1.83.4-1.01-4.62c-1.133.51-2.129.86-2.989 1.048-1.125.246-2.065.18-2.818-.195-.738-.379-1.213-1.053-1.425-2.022l-.831-3.799ZM104.885 15.577l1.867-.13.53 7.59 5.587-6.813-.083-1.197 1.867-.13.787 11.277-1.868.13-.543-7.781-5.587 6.812.097 1.389-1.867.13-.787-11.277ZM118.559 14.886l9.39.58-.097 1.581-3.761-.232-.597 9.701-1.868-.115.596-9.702-3.76-.233.097-1.58ZM146.004 19.085l-2.36 9.428 1.816.456-1.084 4.33-1.63-.409.7-2.793-9.359-2.348-.7 2.794-1.629-.409 1.084-4.33c2.041.017 3.662-2.306 4.862-6.97l.432-1.723 7.868 1.974Zm-2.2 1.081-4.377-1.098-.221.885a19.163 19.163 0 0 1-1.474 3.91c-.641 1.308-1.378 2.179-2.213 2.613l6.309 1.582 1.976-7.892Z" fill="#1A1A1A"/><path d="m158.955 23.9-4.204 10.493-1.737-.697 3.615-9.022-4.188-1.68-.384.957a135.53 135.53 0 0 1-1.147 2.798 20.216 20.216 0 0 1-1.048 2.036c-.452.784-.876 1.304-1.271 1.559-.381.26-.858.44-1.431.538-.568.082-1.2-.016-1.898-.297l-.268-.107.589-1.47.268.107c.555.206 1.025.196 1.408-.03.404-.234.85-.788 1.338-1.66.488-.874 1.106-2.246 1.856-4.117l.973-2.428 7.529 3.02ZM169.996 29.766l-5.528 9.858-1.633-.916 2.219-3.956-2.072-1.163c-.628-.353-1.218-.464-1.768-.332-.529.125-.949.366-1.259.724-.297.365-.638.76-1.024 1.186-.371.434-.703.698-.993.791l-1.926-1.081c.418-.059.829-.268 1.233-.629a8.247 8.247 0 0 0 1.054-1.142c.29-.387.695-.701 1.215-.941.528-.254 1.122-.315 1.782-.183-.539-.413-.851-.937-.935-1.571a2.772 2.772 0 0 1 .331-1.768c1.166-2.08 2.907-2.469 5.223-1.168l4.081 2.291Zm-2.407.465-2.637-1.48c-.586-.33-1.109-.394-1.57-.194-.439.194-.76.472-.964.835-.25.446-.336.894-.257 1.342.101.441.458.835 1.072 1.18l2.595 1.456 1.761-3.14ZM186.806 42.59l1.835 1.621-7.481 8.473-1.259-1.112 6.147-6.962-8.701 4.705-1.475-1.304 3.827-9.267-6.273 7.106-1.403-1.24 7.48-8.473 2.123 1.876-3.62 9.322 8.8-4.745ZM188.421 52.8l-.111.092a4.752 4.752 0 0 0-1.582 2.52c-.246 1 .027 1.973.819 2.917.565.674 1.2 1.02 1.902 1.035a4.186 4.186 0 0 0 2.032-.453l1.048 1.66c-2.493.986-4.563.498-6.208-1.463-.998-1.19-1.462-2.514-1.391-3.973.082-1.47.92-2.873 2.513-4.21.784-.658 1.584-1.11 2.401-1.357.838-.245 1.598-.298 2.279-.159a6.285 6.285 0 0 1 1.898.694c.573.334 1.059.74 1.461 1.218.905 1.08 1.3 2.335 1.187 3.768-.101 1.422-.93 2.786-2.486 4.093l-.239.2-5.523-6.582Zm1.096-.859 4.151 4.947c.735-.618 1.164-1.375 1.288-2.273.136-.908-.1-1.724-.706-2.447-.618-.736-1.358-1.096-2.223-1.08-.852.005-1.688.29-2.51.853ZM200.907 58.836l.993 1.587-3.884 2.433 3.082 4.923 3.884-2.432.994 1.586-9.579 6-.993-1.587 4.352-2.726-3.082-4.923-4.353 2.726-.993-1.587 9.579-6ZM211.766 79.093l-10.325 4.598-.762-1.71 4.143-1.846-.966-2.17c-.293-.658-.699-1.1-1.219-1.323-.499-.216-.98-.273-1.443-.172-.456.116-.966.229-1.53.34-.557.125-.98.138-1.269.04l-.898-2.018c.37.203.825.28 1.364.233a8.256 8.256 0 0 0 1.528-.286c.464-.137.977-.146 1.537-.028.575.112 1.088.418 1.538.918-.185-.653-.122-1.259.189-1.818.312-.56.752-.966 1.322-1.22 2.178-.97 3.807-.24 4.887 2.186l1.904 4.276Zm-2.208-1.067-1.231-2.762c-.273-.614-.654-.979-1.143-1.094-.468-.107-.892-.076-1.272.094-.468.208-.804.515-1.008.922-.183.414-.132.943.155 1.586l1.21 2.719 3.289-1.465ZM206.82 88.305l5.406-1.688.222.71c.329 1.055.825 1.838 1.488 2.352.663.514 1.46.625 2.392.334.916-.286 1.537-.848 1.862-1.687.324-.839.339-1.732.043-2.679-.348-1.115-.947-1.8-1.798-2.054-.835-.259-1.703-.248-2.604.034l-.366.114-.623-1.993.413-.129c1.405-.438 2.749-.347 4.033.275 1.298.617 2.193 1.712 2.685 3.285.448 1.436.368 2.819-.239 4.148-.592 1.325-1.613 2.214-3.064 2.667-1.314.41-2.496.326-3.548-.25-1.036-.582-1.788-1.487-2.255-2.716l-3.482 1.087-.565-1.81Zm-2.843 2.975-.637-2.04 2.223-.693.636 2.039-2.222.694ZM127.459 136.681h-21.715l-.001-6.847c-.002-4.564.656-7.724 1.971-9.479 1.316-1.843 4.518-4.389 9.606-7.636.614-.351 1.886-1.141 3.816-2.37s3.245-2.107 3.947-2.633c.79-.527 1.886-1.361 3.29-2.502 1.491-1.229 2.543-2.238 3.157-3.028.702-.878 1.316-1.931 1.842-3.16.526-1.228.789-2.457.789-3.686-.002-7.548-6.013-11.323-18.033-11.323-6.317 0-10.704 1.449-13.16 4.345-2.368 2.897-3.683 6.89-3.945 11.981L77.834 99.29c.611-10.357 4.163-17.994 10.654-22.909 6.492-5.003 16.186-7.504 29.084-7.504 7.194 0 13.424.834 18.688 2.501 5.353 1.58 9.389 3.73 12.11 6.451 2.808 2.634 4.827 5.442 6.056 8.427a21.706 21.706 0 0 1 1.976 9.084c.002 5.003-1.445 9.348-4.339 13.034-2.807 3.687-8.114 7.768-15.922 12.244-.35.176-1.052.571-2.105 1.185-.965.527-1.667.922-2.105 1.185-.351.263-.921.746-1.711 1.448-.702.615-1.228 1.273-1.579 1.975-.263.702-.526 1.624-.789 2.765s-.394 2.414-.393 3.818v3.687Zm.008 27.384h-21.716l-.004-16.457h21.715l.005 16.457Z" fill="#1A1A1A"/></svg>
