<svg xmlns="http://www.w3.org/2000/svg" width="29" height="18" viewBox="0 0 29 18"><path d="M28.34 1.168C28.537.495 28.34 0 27.38 0h-3.17c-.808 0-1.18.425-1.378.9 0 0-1.615 3.934-3.898 6.486-.738.738-1.077.975-1.48.975-.2 0-.507-.237-.507-.91V1.168c0-.807-.226-1.168-.893-1.168h-4.985c-.506 0-.808.377-.808.727 0 .764 1.141.942 1.26 3.095v4.673c0 1.023-.183 1.212-.587 1.212-1.077 0-3.693-3.952-5.244-8.474C5.378.355 5.071 0 4.258 0h-3.17C.182 0 0 .425 0 .9c0 .839 1.077 5.011 5.012 10.524 2.622 3.763 6.315 5.803 9.674 5.803 2.02 0 2.267-.452 2.267-1.232 0-3.597-.183-3.936.829-3.936.468 0 1.276.237 3.16 2.051 2.153 2.154 2.509 3.117 3.715 3.117h3.17c.905 0 1.363-.452 1.099-1.345-.603-1.88-4.678-5.745-4.861-6.003-.469-.603-.334-.872 0-1.41.005-.006 3.876-5.454 4.274-7.3Z"/></svg>