<?xml version="1.0" encoding="utf-8"?><svg xmlns="http://www.w3.org/2000/svg" width="29" height="24" viewBox="0 0 29 24"><path d="M28.989 2.086c-.402 4.223-2.141 14.47-3.026 19.2-.374 2-1.112 2.672-1.825 2.737-1.55.143-2.728-1.025-4.23-2.01-2.35-1.54-3.679-2.499-5.96-4.002-2.637-1.738-.928-2.692.575-4.254.393-.408 7.226-6.623 7.358-7.187.017-.07.033-.334-.124-.472-.156-.138-.386-.091-.553-.054-.235.054-3.99 2.535-11.264 7.445-1.066.732-2.031 1.089-2.896 1.07-.953-.02-2.788-.54-4.151-.982-1.673-.544-3.002-.831-2.886-1.755.06-.48.723-.972 1.987-1.475C9.779 6.955 14.97 4.72 17.567 3.64 24.983.554 26.524.019 27.53 0c.22-.003.715.051 1.035.311.212.185.348.443.38.723.054.348.07.7.045 1.052Z"/></svg>