<?xml version="1.0" encoding="utf-8"?><svg viewBox="0 0 88 24" xmlns="http://www.w3.org/2000/svg" xmlns:xlink="http://www.w3.org/1999/xlink"><style>:root>svg{display:none}:root>svg:target{display:block}</style><svg viewBox="0 0 88 24" id="arrow" xmlns="http://www.w3.org/2000/svg"><path d="m77.515 1.393 9.546 9.546a1.5 1.5 0 0 1 0 2.122l-9.546 9.545a1.5 1.5 0 1 1-2.122-2.12L82.38 13.5H0v-3h82.379l-6.986-6.985a1.5 1.5 0 1 1 2.122-2.122Z"/></svg><svg viewBox="0 0 14 14" id="info" xmlns="http://www.w3.org/2000/svg"><path fill-rule="evenodd" d="M7 0a7 7 0 1 1 0 14A7 7 0 0 1 7 0Zm0 .824a6.176 6.176 0 1 0 0 12.352A6.176 6.176 0 0 0 7 .824Zm.131 4.59c.341 0 .618.277.618.618V10.4a.618.618 0 0 1-1.235 0V6.032c0-.341.276-.618.617-.618Zm.008-2.398a.824.824 0 0 1 .103 1.64l-.114.007a.824.824 0 0 1-.103-1.641l.114-.006Z"/></svg><svg viewBox="0 0 29 24" id="telegram" xmlns="http://www.w3.org/2000/svg"><path d="M28.989 2.086c-.402 4.223-2.141 14.47-3.026 19.2-.374 2-1.112 2.672-1.825 2.737-1.55.143-2.728-1.025-4.23-2.01-2.35-1.54-3.679-2.499-5.96-4.002-2.637-1.738-.928-2.692.575-4.254.393-.408 7.226-6.623 7.358-7.187.017-.07.033-.334-.124-.472-.156-.138-.386-.091-.553-.054-.235.054-3.99 2.535-11.264 7.445-1.066.732-2.031 1.089-2.896 1.07-.953-.02-2.788-.54-4.151-.982-1.673-.544-3.002-.831-2.886-1.755.06-.48.723-.972 1.987-1.475C9.779 6.955 14.97 4.72 17.567 3.64 24.983.554 26.524.019 27.53 0c.22-.003.715.051 1.035.311.212.185.348.443.38.723.054.348.07.7.045 1.052Z"/></svg><svg viewBox="0 0 29 18" id="vk" xmlns="http://www.w3.org/2000/svg"><path d="M28.34 1.168C28.537.495 28.34 0 27.38 0h-3.17c-.808 0-1.18.425-1.378.9 0 0-1.615 3.934-3.898 6.486-.738.738-1.077.975-1.48.975-.2 0-.507-.237-.507-.91V1.168c0-.807-.226-1.168-.893-1.168h-4.985c-.506 0-.808.377-.808.727 0 .764 1.141.942 1.26 3.095v4.673c0 1.023-.183 1.212-.587 1.212-1.077 0-3.693-3.952-5.244-8.474C5.378.355 5.071 0 4.258 0h-3.17C.182 0 0 .425 0 .9c0 .839 1.077 5.011 5.012 10.524 2.622 3.763 6.315 5.803 9.674 5.803 2.02 0 2.267-.452 2.267-1.232 0-3.597-.183-3.936.829-3.936.468 0 1.276.237 3.16 2.051 2.153 2.154 2.509 3.117 3.715 3.117h3.17c.905 0 1.363-.452 1.099-1.345-.603-1.88-4.678-5.745-4.861-6.003-.469-.603-.334-.872 0-1.41.005-.006 3.876-5.454 4.274-7.3Z"/></svg></svg>