<svg xmlns="http://www.w3.org/2000/svg" width="607" height="1080" viewBox="0 0 607 1080"><path d="M292.27 0h.41c7.07.15 14.16 2.16 19.98 6.25 10.03 6.67 16.24 18.71 15.64 30.77-.14 14.95-10.95 28.84-25.21 33.08-10 3.08-21.37 1.6-30.11-4.21-10-6.36-16.44-18-16.3-29.87-.2-9.1 3.5-18.04 9.61-24.7C272.99 4.27 282.53.06 292.27 0Zm90.18 90.59c8.66-1.61 17.73.66 25.55 4.45 13.07 6.66 22.33 20.34 23.31 35.01 1.32 14.05-4.9 28.49-15.94 37.25-7.12 5.9-16.21 9.12-25.37 9.72-12.59.45-25.43-4.63-33.85-14.1-8.48-8.94-12.63-21.68-11.24-33.92 1.67-19.43 18.14-36.29 37.54-38.41Zm-108.2 118.65c8.07-.7 16.38-.5 24.09 2.33 18.09 5.96 32.11 22.63 34.7 41.52 1.71 9.77.05 19.98-3.93 29.01-6.33 14.33-19.49 25.39-34.69 29.19-13.33 3.62-27.98 1.22-39.77-5.87-12.06-7.31-21.07-19.63-23.99-33.47-2.81-13.57-.39-28.32 7.48-39.84 8-12.38 21.6-20.68 36.11-22.87ZM156.43 332.43c10.51-4.28 23.02-3.46 32.78 2.38 6.3 3.62 11.24 9.19 14.6 15.58 5.06 10.55 5.04 23.49-.63 33.79-4.02 7.66-10.93 13.5-18.79 16.95.03 38.28-.02 76.56.02 114.84-36.98 20.15-74.13 40.01-111.12 60.16 3.51 17.14-7.69 35.22-24.01 40.94.01 78.91.08 157.81-.03 236.72 7.6 2.99 14.6 7.87 19.11 14.78 5.37 7.87 7.18 17.84 5.57 27.18 68.31 39.46 136.68 78.83 205.04 118.18 2.58-.59 4.48-3 6.98-3.99 13.26-6.87 30.23-5.01 41.89 4.27 68.29-39.67 136.88-78.83 205.22-118.42-1.49-9.36.16-19.35 5.59-27.22 4.52-6.93 11.53-11.85 19.17-14.79-.1-78.83-.04-157.67-.02-236.5-10.62-3.72-19.6-12.16-23.24-22.89-2.24-6.01-2.24-12.55-1.65-18.85-36.65-19.48-73.11-39.33-109.71-58.92.09-38.63.02-77.27.03-115.9-7.65-3.44-14.25-9.29-18.08-16.8-5.7-10.58-5.61-23.99.11-34.54 5.03-9.51 14.37-16.63 24.91-18.85 15.98-3.69 33.7 4.66 40.91 19.4 7.39 13.9 4.37 32.23-6.96 43.14-3.25 3.2-7.13 5.7-11.24 7.65-.03 32.68.07 65.37-.05 98.05 32.04 17.65 64.45 34.66 96.55 52.2 9.26-5.99 21.16-7.64 31.66-4.19 14.87 4.69 25.97 19.52 25.59 35.22.31 13.43-7.72 26.25-19.37 32.67-.07 80.61.01 161.23-.04 241.84 9 4.95 15.96 13.65 18.38 23.68 2.01 8.45 1.17 17.66-2.81 25.44-4.6 9.28-13.27 16.47-23.28 19.18-9.96 2.82-20.92 1.08-29.7-4.33-69.76 40.03-139.42 80.24-209.1 120.41.07 7.4-1.68 14.87-5.64 21.17-6.43 10.62-18.57 17.54-31 17.55-12.34.35-24.58-6.1-31.38-16.36-4.45-6.56-6.51-14.5-6.4-22.38-69.65-40.18-139.3-80.39-209.04-120.42-8.81 5.44-19.83 7.2-29.82 4.33-9.68-2.63-18.09-9.47-22.77-18.34-4.19-7.7-5.31-16.94-3.42-25.48 2.31-10.35 9.34-19.58 18.74-24.49.05-80.5 0-161 .03-241.5-6.88-3.9-12.74-9.7-16.07-16.92-5.9-12.16-4.44-27.54 3.8-38.28 8.28-11.43 23.57-17.15 37.32-13.9 4.35.92 8.39 2.89 12.16 5.2 32.6-17.64 65.27-35.17 97.81-52.94-.05-32.56.01-65.12-.04-97.68-8.91-4.09-16.09-11.8-19.43-21.03-3.55-9.62-2.81-20.69 1.94-29.78 4.06-7.69 10.83-13.97 18.93-17.21Z"/><path d="M206.99 589.13c32.91-21.95 73.49-32.12 112.86-28.22 27.09 2.42 53.36 11.71 76.47 25.95 11.82-6.19 27.54-2.12 35.33 8.59 7.44 9.58 7.73 23.94.64 33.8-6.7 10.06-20.17 14.79-31.72 11.3-12.79-3.48-22.25-16.69-20.59-30-27.62-16.81-60.81-24.63-92.99-20.7-35.05 3.77-68.38 21.03-91.92 47.23-26.26 28.57-40.23 68.04-37.74 106.76 2 35.71 17.82 70.39 43.39 95.39 25.43 25.28 60.44 40.73 96.31 42.09 23.02 1.06 46.4-3.2 67.34-12.92 13.63-6.18 25.88-15.03 36.69-25.33 27.83-24.11 45.69-59.42 48.33-96.17.88-7.28.87-14.68.36-21.99-1.25-5.23.23-11.2 4.4-14.77 6.1-5.85 17.33-4.46 21.71 2.82 2.22 3.2 2.3 7.2 2.66 10.94 1.9 33.38-5.55 67.39-22.26 96.43-16.75 29.46-42.08 53.92-72.01 69.78-24.61 12.93-52.4 20.42-80.28 19.89-30.45.66-60.9-7.77-87.32-22.82-33.38-19.06-60.23-49.34-74.93-84.88-17.5-41.54-17.87-89.92-1.02-131.73 13.08-33.08 36.63-61.84 66.29-81.44Z"/><path d="M273.96 654.11c29.53-10.94 64.56-3.93 87.91 17.11 20.27 17.46 31.66 45.11 28.15 71.8-1.66 11.15-4.27 22.34-9.49 32.41-8.69 17.21-23.43 31.23-40.96 39.23-13.16 6.14-27.85 8.64-42.32 7.56-4.02 4.23-8.76 7.99-14.55 9.38-6.36 1.25-13.3.91-19.04-2.35-9.05-4.65-14.81-14.96-13.86-25.12.41-13.09 12.19-24.47 25.27-24.6 11.04-.68 21.61 6.46 25.79 16.58 15.81.88 31.74-5.23 43.18-16.1 10.57-9.85 17.5-23.55 18.95-37.93-.15-6.05.62-12.22-.91-18.15-3.53-18.5-16.54-34.63-33.53-42.6-9.5-4.12-19.99-6.8-30.4-5.67-18.27 1.29-35.44 11.85-45.38 27.15-5.97 8.93-9.17 19.54-9.86 30.22-.63 5.16-4.73 9.63-9.75 10.91-3.05.19-6.37.58-9.14-1-4.73-2.31-7.8-7.57-7.25-12.84.88-15.19 6-30.12 14.52-42.73 10.27-15.17 25.39-27.08 42.67-33.26Z"/></svg>